<svg width="1440" height="810" viewBox="0 0 1440 810" fill="none" xmlns="http://www.w3.org/2000/svg">
<g clip-path="url(#clip0_22_2886)">
<rect width="1440" height="810" fill="#1F1F1F"/>
<g clip-path="url(#clip1_22_2886)">
<path d="M74.1125 34.203C75.8314 34.203 77.2249 32.8144 77.2249 31.1015C77.2249 29.3886 75.8314 28 74.1125 28C72.3935 28 71 29.3886 71 31.1015C71 32.8144 72.3935 34.203 74.1125 34.203Z" fill="#272727"/>
<path d="M88.66 34.203C90.3789 34.203 91.7724 32.8144 91.7724 31.1015C91.7724 29.3886 90.3789 28 88.66 28C86.941 28 85.5475 29.3886 85.5475 31.1015C85.5475 32.8144 86.941 34.203 88.66 34.203Z" fill="#272727"/>
<path d="M103.209 34.203C104.928 34.203 106.322 32.8144 106.322 31.1015C106.322 29.3886 104.928 28 103.209 28C101.49 28 100.097 29.3886 100.097 31.1015C100.097 32.8144 101.49 34.203 103.209 34.203Z" fill="#272727"/>
<path d="M117.759 34.203C119.478 34.203 120.871 32.8144 120.871 31.1015C120.871 29.3886 119.478 28 117.759 28C116.04 28 114.646 29.3886 114.646 31.1015C114.646 32.8144 116.04 34.203 117.759 34.203Z" fill="#272727"/>
<path d="M132.306 34.203C134.025 34.203 135.419 32.8144 135.419 31.1015C135.419 29.3886 134.025 28 132.306 28C130.587 28 129.194 29.3886 129.194 31.1015C129.194 32.8144 130.587 34.203 132.306 34.203Z" fill="#272727"/>
<path d="M146.854 34.203C148.573 34.203 149.966 32.8144 149.966 31.1015C149.966 29.3886 148.573 28 146.854 28C145.135 28 143.741 29.3886 143.741 31.1015C143.741 32.8144 145.135 34.203 146.854 34.203Z" fill="#272727"/>
<path d="M161.403 34.203C163.122 34.203 164.516 32.8144 164.516 31.1015C164.516 29.3886 163.122 28 161.403 28C159.684 28 158.291 29.3886 158.291 31.1015C158.291 32.8144 159.684 34.203 161.403 34.203Z" fill="#272727"/>
<path d="M175.952 34.203C177.671 34.203 179.065 32.8144 179.065 31.1015C179.065 29.3886 177.671 28 175.952 28C174.234 28 172.84 29.3886 172.84 31.1015C172.84 32.8144 174.234 34.203 175.952 34.203Z" fill="#272727"/>
<path d="M190.5 34.203C192.219 34.203 193.612 32.8144 193.612 31.1015C193.612 29.3886 192.219 28 190.5 28C188.781 28 187.388 29.3886 187.388 31.1015C187.388 32.8144 188.781 34.203 190.5 34.203Z" fill="#272727"/>
<path d="M205.047 34.203C206.766 34.203 208.16 32.8144 208.16 31.1015C208.16 29.3886 206.766 28 205.047 28C203.329 28 201.935 29.3886 201.935 31.1015C201.935 32.8144 203.329 34.203 205.047 34.203Z" fill="#272727"/>
<path d="M219.597 34.203C221.316 34.203 222.709 32.8144 222.709 31.1015C222.709 29.3886 221.316 28 219.597 28C217.878 28 216.484 29.3886 216.484 31.1015C216.484 32.8144 217.878 34.203 219.597 34.203Z" fill="#272727"/>
<path d="M234.146 34.203C235.865 34.203 237.259 32.8144 237.259 31.1015C237.259 29.3886 235.865 28 234.146 28C232.427 28 231.034 29.3886 231.034 31.1015C231.034 32.8144 232.427 34.203 234.146 34.203Z" fill="#272727"/>
<path d="M248.694 34.203C250.413 34.203 251.806 32.8144 251.806 31.1015C251.806 29.3886 250.413 28 248.694 28C246.975 28 245.581 29.3886 245.581 31.1015C245.581 32.8144 246.975 34.203 248.694 34.203Z" fill="#272727"/>
<path d="M263.241 34.203C264.96 34.203 266.354 32.8144 266.354 31.1015C266.354 29.3886 264.96 28 263.241 28C261.522 28 260.129 29.3886 260.129 31.1015C260.129 32.8144 261.522 34.203 263.241 34.203Z" fill="#272727"/>
<path d="M277.791 34.203C279.51 34.203 280.903 32.8144 280.903 31.1015C280.903 29.3886 279.51 28 277.791 28C276.072 28 274.678 29.3886 274.678 31.1015C274.678 32.8144 276.072 34.203 277.791 34.203Z" fill="#272727"/>
<path d="M292.34 34.203C294.059 34.203 295.453 32.8144 295.453 31.1015C295.453 29.3886 294.059 28 292.34 28C290.621 28 289.228 29.3886 289.228 31.1015C289.228 32.8144 290.621 34.203 292.34 34.203Z" fill="#272727"/>
<path d="M306.888 34.203C308.607 34.203 310 32.8144 310 31.1015C310 29.3886 308.607 28 306.888 28C305.169 28 303.775 29.3886 303.775 31.1015C303.775 32.8144 305.169 34.203 306.888 34.203Z" fill="#272727"/>
<path d="M74.1125 47.8778C75.8314 47.8778 77.2249 46.4892 77.2249 44.7763C77.2249 43.0634 75.8314 41.6748 74.1125 41.6748C72.3935 41.6748 71 43.0634 71 44.7763C71 46.4892 72.3935 47.8778 74.1125 47.8778Z" fill="#272727"/>
<path d="M88.66 47.8778C90.3789 47.8778 91.7724 46.4892 91.7724 44.7763C91.7724 43.0634 90.3789 41.6748 88.66 41.6748C86.941 41.6748 85.5475 43.0634 85.5475 44.7763C85.5475 46.4892 86.941 47.8778 88.66 47.8778Z" fill="#272727"/>
<path d="M103.209 47.8778C104.928 47.8778 106.322 46.4892 106.322 44.7763C106.322 43.0634 104.928 41.6748 103.209 41.6748C101.49 41.6748 100.097 43.0634 100.097 44.7763C100.097 46.4892 101.49 47.8778 103.209 47.8778Z" fill="#272727"/>
<path d="M117.759 47.8778C119.478 47.8778 120.871 46.4892 120.871 44.7763C120.871 43.0634 119.478 41.6748 117.759 41.6748C116.04 41.6748 114.646 43.0634 114.646 44.7763C114.646 46.4892 116.04 47.8778 117.759 47.8778Z" fill="#272727"/>
<path d="M132.306 47.8778C134.025 47.8778 135.419 46.4892 135.419 44.7763C135.419 43.0634 134.025 41.6748 132.306 41.6748C130.587 41.6748 129.194 43.0634 129.194 44.7763C129.194 46.4892 130.587 47.8778 132.306 47.8778Z" fill="#272727"/>
<path d="M146.854 47.8778C148.573 47.8778 149.966 46.4892 149.966 44.7763C149.966 43.0634 148.573 41.6748 146.854 41.6748C145.135 41.6748 143.741 43.0634 143.741 44.7763C143.741 46.4892 145.135 47.8778 146.854 47.8778Z" fill="#272727"/>
<path d="M161.403 47.8778C163.122 47.8778 164.516 46.4892 164.516 44.7763C164.516 43.0634 163.122 41.6748 161.403 41.6748C159.684 41.6748 158.291 43.0634 158.291 44.7763C158.291 46.4892 159.684 47.8778 161.403 47.8778Z" fill="#272727"/>
<path d="M175.952 47.8778C177.671 47.8778 179.065 46.4892 179.065 44.7763C179.065 43.0634 177.671 41.6748 175.952 41.6748C174.234 41.6748 172.84 43.0634 172.84 44.7763C172.84 46.4892 174.234 47.8778 175.952 47.8778Z" fill="#272727"/>
<path d="M190.5 47.8778C192.219 47.8778 193.612 46.4892 193.612 44.7763C193.612 43.0634 192.219 41.6748 190.5 41.6748C188.781 41.6748 187.388 43.0634 187.388 44.7763C187.388 46.4892 188.781 47.8778 190.5 47.8778Z" fill="#272727"/>
<path d="M205.047 47.8778C206.766 47.8778 208.16 46.4892 208.16 44.7763C208.16 43.0634 206.766 41.6748 205.047 41.6748C203.329 41.6748 201.935 43.0634 201.935 44.7763C201.935 46.4892 203.329 47.8778 205.047 47.8778Z" fill="#272727"/>
<path d="M219.597 47.8778C221.316 47.8778 222.709 46.4892 222.709 44.7763C222.709 43.0634 221.316 41.6748 219.597 41.6748C217.878 41.6748 216.484 43.0634 216.484 44.7763C216.484 46.4892 217.878 47.8778 219.597 47.8778Z" fill="#272727"/>
<path d="M234.146 47.8778C235.865 47.8778 237.259 46.4892 237.259 44.7763C237.259 43.0634 235.865 41.6748 234.146 41.6748C232.427 41.6748 231.034 43.0634 231.034 44.7763C231.034 46.4892 232.427 47.8778 234.146 47.8778Z" fill="#272727"/>
<path d="M248.694 47.8778C250.413 47.8778 251.806 46.4892 251.806 44.7763C251.806 43.0634 250.413 41.6748 248.694 41.6748C246.975 41.6748 245.581 43.0634 245.581 44.7763C245.581 46.4892 246.975 47.8778 248.694 47.8778Z" fill="#272727"/>
<path d="M263.241 47.8778C264.96 47.8778 266.354 46.4892 266.354 44.7763C266.354 43.0634 264.96 41.6748 263.241 41.6748C261.522 41.6748 260.129 43.0634 260.129 44.7763C260.129 46.4892 261.522 47.8778 263.241 47.8778Z" fill="#272727"/>
<path d="M277.791 47.8778C279.51 47.8778 280.903 46.4892 280.903 44.7763C280.903 43.0634 279.51 41.6748 277.791 41.6748C276.072 41.6748 274.678 43.0634 274.678 44.7763C274.678 46.4892 276.072 47.8778 277.791 47.8778Z" fill="#272727"/>
<path d="M292.34 47.8778C294.059 47.8778 295.453 46.4892 295.453 44.7763C295.453 43.0634 294.059 41.6748 292.34 41.6748C290.621 41.6748 289.228 43.0634 289.228 44.7763C289.228 46.4892 290.621 47.8778 292.34 47.8778Z" fill="#272727"/>
<path d="M306.888 47.8778C308.607 47.8778 310 46.4892 310 44.7763C310 43.0634 308.607 41.6748 306.888 41.6748C305.169 41.6748 303.775 43.0634 303.775 44.7763C303.775 46.4892 305.169 47.8778 306.888 47.8778Z" fill="#272727"/>
<path d="M74.1125 61.5526C75.8314 61.5526 77.2249 60.164 77.2249 58.4511C77.2249 56.7382 75.8314 55.3496 74.1125 55.3496C72.3935 55.3496 71 56.7382 71 58.4511C71 60.164 72.3935 61.5526 74.1125 61.5526Z" fill="#272727"/>
<path d="M88.66 61.5526C90.3789 61.5526 91.7724 60.164 91.7724 58.4511C91.7724 56.7382 90.3789 55.3496 88.66 55.3496C86.941 55.3496 85.5475 56.7382 85.5475 58.4511C85.5475 60.164 86.941 61.5526 88.66 61.5526Z" fill="#272727"/>
<path d="M103.209 61.5526C104.928 61.5526 106.322 60.164 106.322 58.4511C106.322 56.7382 104.928 55.3496 103.209 55.3496C101.49 55.3496 100.097 56.7382 100.097 58.4511C100.097 60.164 101.49 61.5526 103.209 61.5526Z" fill="#272727"/>
<path d="M117.759 61.5526C119.478 61.5526 120.871 60.164 120.871 58.4511C120.871 56.7382 119.478 55.3496 117.759 55.3496C116.04 55.3496 114.646 56.7382 114.646 58.4511C114.646 60.164 116.04 61.5526 117.759 61.5526Z" fill="#272727"/>
<path d="M132.306 61.5526C134.025 61.5526 135.419 60.164 135.419 58.4511C135.419 56.7382 134.025 55.3496 132.306 55.3496C130.587 55.3496 129.194 56.7382 129.194 58.4511C129.194 60.164 130.587 61.5526 132.306 61.5526Z" fill="#272727"/>
<path d="M146.854 61.5526C148.573 61.5526 149.966 60.164 149.966 58.4511C149.966 56.7382 148.573 55.3496 146.854 55.3496C145.135 55.3496 143.741 56.7382 143.741 58.4511C143.741 60.164 145.135 61.5526 146.854 61.5526Z" fill="#272727"/>
<path d="M161.403 61.5526C163.122 61.5526 164.516 60.164 164.516 58.4511C164.516 56.7382 163.122 55.3496 161.403 55.3496C159.684 55.3496 158.291 56.7382 158.291 58.4511C158.291 60.164 159.684 61.5526 161.403 61.5526Z" fill="#272727"/>
<path d="M175.952 61.5526C177.671 61.5526 179.065 60.164 179.065 58.4511C179.065 56.7382 177.671 55.3496 175.952 55.3496C174.234 55.3496 172.84 56.7382 172.84 58.4511C172.84 60.164 174.234 61.5526 175.952 61.5526Z" fill="#272727"/>
<path d="M190.5 61.5526C192.219 61.5526 193.612 60.164 193.612 58.4511C193.612 56.7382 192.219 55.3496 190.5 55.3496C188.781 55.3496 187.388 56.7382 187.388 58.4511C187.388 60.164 188.781 61.5526 190.5 61.5526Z" fill="#272727"/>
<path d="M205.047 61.5526C206.766 61.5526 208.16 60.164 208.16 58.4511C208.16 56.7382 206.766 55.3496 205.047 55.3496C203.329 55.3496 201.935 56.7382 201.935 58.4511C201.935 60.164 203.329 61.5526 205.047 61.5526Z" fill="#272727"/>
<path d="M219.597 61.5526C221.316 61.5526 222.709 60.164 222.709 58.4511C222.709 56.7382 221.316 55.3496 219.597 55.3496C217.878 55.3496 216.484 56.7382 216.484 58.4511C216.484 60.164 217.878 61.5526 219.597 61.5526Z" fill="#272727"/>
<path d="M234.146 61.5526C235.865 61.5526 237.259 60.164 237.259 58.4511C237.259 56.7382 235.865 55.3496 234.146 55.3496C232.427 55.3496 231.034 56.7382 231.034 58.4511C231.034 60.164 232.427 61.5526 234.146 61.5526Z" fill="#272727"/>
<path d="M248.694 61.5526C250.413 61.5526 251.806 60.164 251.806 58.4511C251.806 56.7382 250.413 55.3496 248.694 55.3496C246.975 55.3496 245.581 56.7382 245.581 58.4511C245.581 60.164 246.975 61.5526 248.694 61.5526Z" fill="#272727"/>
<path d="M263.241 61.5526C264.96 61.5526 266.354 60.164 266.354 58.4511C266.354 56.7382 264.96 55.3496 263.241 55.3496C261.522 55.3496 260.129 56.7382 260.129 58.4511C260.129 60.164 261.522 61.5526 263.241 61.5526Z" fill="#272727"/>
<path d="M277.791 61.5526C279.51 61.5526 280.903 60.164 280.903 58.4511C280.903 56.7382 279.51 55.3496 277.791 55.3496C276.072 55.3496 274.678 56.7382 274.678 58.4511C274.678 60.164 276.072 61.5526 277.791 61.5526Z" fill="#272727"/>
<path d="M292.34 61.5526C294.059 61.5526 295.453 60.164 295.453 58.4511C295.453 56.7382 294.059 55.3496 292.34 55.3496C290.621 55.3496 289.228 56.7382 289.228 58.4511C289.228 60.164 290.621 61.5526 292.34 61.5526Z" fill="#272727"/>
<path d="M306.888 61.5526C308.607 61.5526 310 60.164 310 58.4511C310 56.7382 308.607 55.3496 306.888 55.3496C305.169 55.3496 303.775 56.7382 303.775 58.4511C303.775 60.164 305.169 61.5526 306.888 61.5526Z" fill="#272727"/>
<path d="M74.1125 75.2274C75.8314 75.2274 77.2249 73.8389 77.2249 72.1259C77.2249 70.413 75.8314 69.0244 74.1125 69.0244C72.3935 69.0244 71 70.413 71 72.1259C71 73.8389 72.3935 75.2274 74.1125 75.2274Z" fill="#272727"/>
<path d="M88.66 75.2274C90.3789 75.2274 91.7724 73.8389 91.7724 72.1259C91.7724 70.413 90.3789 69.0244 88.66 69.0244C86.941 69.0244 85.5475 70.413 85.5475 72.1259C85.5475 73.8389 86.941 75.2274 88.66 75.2274Z" fill="#272727"/>
<path d="M103.209 75.2274C104.928 75.2274 106.322 73.8389 106.322 72.1259C106.322 70.413 104.928 69.0244 103.209 69.0244C101.49 69.0244 100.097 70.413 100.097 72.1259C100.097 73.8389 101.49 75.2274 103.209 75.2274Z" fill="#272727"/>
<path d="M117.759 75.2274C119.478 75.2274 120.871 73.8389 120.871 72.1259C120.871 70.413 119.478 69.0244 117.759 69.0244C116.04 69.0244 114.646 70.413 114.646 72.1259C114.646 73.8389 116.04 75.2274 117.759 75.2274Z" fill="#272727"/>
<path d="M132.306 75.2274C134.025 75.2274 135.419 73.8389 135.419 72.1259C135.419 70.413 134.025 69.0244 132.306 69.0244C130.587 69.0244 129.194 70.413 129.194 72.1259C129.194 73.8389 130.587 75.2274 132.306 75.2274Z" fill="#272727"/>
<path d="M146.854 75.2274C148.573 75.2274 149.966 73.8389 149.966 72.1259C149.966 70.413 148.573 69.0244 146.854 69.0244C145.135 69.0244 143.741 70.413 143.741 72.1259C143.741 73.8389 145.135 75.2274 146.854 75.2274Z" fill="#272727"/>
<path d="M161.403 75.2274C163.122 75.2274 164.516 73.8389 164.516 72.1259C164.516 70.413 163.122 69.0244 161.403 69.0244C159.684 69.0244 158.291 70.413 158.291 72.1259C158.291 73.8389 159.684 75.2274 161.403 75.2274Z" fill="#272727"/>
<path d="M175.952 75.2274C177.671 75.2274 179.065 73.8389 179.065 72.1259C179.065 70.413 177.671 69.0244 175.952 69.0244C174.234 69.0244 172.84 70.413 172.84 72.1259C172.84 73.8389 174.234 75.2274 175.952 75.2274Z" fill="#272727"/>
<path d="M190.5 75.2274C192.219 75.2274 193.612 73.8389 193.612 72.1259C193.612 70.413 192.219 69.0244 190.5 69.0244C188.781 69.0244 187.388 70.413 187.388 72.1259C187.388 73.8389 188.781 75.2274 190.5 75.2274Z" fill="#272727"/>
<path d="M205.047 75.2274C206.766 75.2274 208.16 73.8389 208.16 72.1259C208.16 70.413 206.766 69.0244 205.047 69.0244C203.329 69.0244 201.935 70.413 201.935 72.1259C201.935 73.8389 203.329 75.2274 205.047 75.2274Z" fill="#272727"/>
<path d="M219.597 75.2274C221.316 75.2274 222.709 73.8389 222.709 72.1259C222.709 70.413 221.316 69.0244 219.597 69.0244C217.878 69.0244 216.484 70.413 216.484 72.1259C216.484 73.8389 217.878 75.2274 219.597 75.2274Z" fill="#272727"/>
<path d="M234.146 75.2274C235.865 75.2274 237.259 73.8389 237.259 72.1259C237.259 70.413 235.865 69.0244 234.146 69.0244C232.427 69.0244 231.034 70.413 231.034 72.1259C231.034 73.8389 232.427 75.2274 234.146 75.2274Z" fill="#272727"/>
<path d="M248.694 75.2274C250.413 75.2274 251.806 73.8389 251.806 72.1259C251.806 70.413 250.413 69.0244 248.694 69.0244C246.975 69.0244 245.581 70.413 245.581 72.1259C245.581 73.8389 246.975 75.2274 248.694 75.2274Z" fill="#272727"/>
<path d="M263.241 75.2274C264.96 75.2274 266.354 73.8389 266.354 72.1259C266.354 70.413 264.96 69.0244 263.241 69.0244C261.522 69.0244 260.129 70.413 260.129 72.1259C260.129 73.8389 261.522 75.2274 263.241 75.2274Z" fill="#272727"/>
<path d="M277.791 75.2274C279.51 75.2274 280.903 73.8389 280.903 72.1259C280.903 70.413 279.51 69.0244 277.791 69.0244C276.072 69.0244 274.678 70.413 274.678 72.1259C274.678 73.8389 276.072 75.2274 277.791 75.2274Z" fill="#272727"/>
<path d="M292.34 75.2274C294.059 75.2274 295.453 73.8389 295.453 72.1259C295.453 70.413 294.059 69.0244 292.34 69.0244C290.621 69.0244 289.228 70.413 289.228 72.1259C289.228 73.8389 290.621 75.2274 292.34 75.2274Z" fill="#272727"/>
<path d="M306.888 75.2274C308.607 75.2274 310 73.8389 310 72.1259C310 70.413 308.607 69.0244 306.888 69.0244C305.169 69.0244 303.775 70.413 303.775 72.1259C303.775 73.8389 305.169 75.2274 306.888 75.2274Z" fill="#272727"/>
<path d="M74.1125 88.9023C75.8314 88.9023 77.2249 87.5137 77.2249 85.8008C77.2249 84.0878 75.8314 82.6992 74.1125 82.6992C72.3935 82.6992 71 84.0878 71 85.8008C71 87.5137 72.3935 88.9023 74.1125 88.9023Z" fill="#272727"/>
<path d="M88.66 88.9023C90.3789 88.9023 91.7724 87.5137 91.7724 85.8008C91.7724 84.0878 90.3789 82.6992 88.66 82.6992C86.941 82.6992 85.5475 84.0878 85.5475 85.8008C85.5475 87.5137 86.941 88.9023 88.66 88.9023Z" fill="#272727"/>
<path d="M103.209 88.9023C104.928 88.9023 106.322 87.5137 106.322 85.8008C106.322 84.0878 104.928 82.6992 103.209 82.6992C101.49 82.6992 100.097 84.0878 100.097 85.8008C100.097 87.5137 101.49 88.9023 103.209 88.9023Z" fill="#272727"/>
<path d="M117.759 88.9023C119.478 88.9023 120.871 87.5137 120.871 85.8008C120.871 84.0878 119.478 82.6992 117.759 82.6992C116.04 82.6992 114.646 84.0878 114.646 85.8008C114.646 87.5137 116.04 88.9023 117.759 88.9023Z" fill="#272727"/>
<path d="M132.306 88.9023C134.025 88.9023 135.419 87.5137 135.419 85.8008C135.419 84.0878 134.025 82.6992 132.306 82.6992C130.587 82.6992 129.194 84.0878 129.194 85.8008C129.194 87.5137 130.587 88.9023 132.306 88.9023Z" fill="#272727"/>
<path d="M146.854 88.9023C148.573 88.9023 149.966 87.5137 149.966 85.8008C149.966 84.0878 148.573 82.6992 146.854 82.6992C145.135 82.6992 143.741 84.0878 143.741 85.8008C143.741 87.5137 145.135 88.9023 146.854 88.9023Z" fill="#272727"/>
<path d="M161.403 88.9023C163.122 88.9023 164.516 87.5137 164.516 85.8008C164.516 84.0878 163.122 82.6992 161.403 82.6992C159.684 82.6992 158.291 84.0878 158.291 85.8008C158.291 87.5137 159.684 88.9023 161.403 88.9023Z" fill="#272727"/>
<path d="M175.952 88.9023C177.671 88.9023 179.065 87.5137 179.065 85.8008C179.065 84.0878 177.671 82.6992 175.952 82.6992C174.234 82.6992 172.84 84.0878 172.84 85.8008C172.84 87.5137 174.234 88.9023 175.952 88.9023Z" fill="#272727"/>
<path d="M190.5 88.9023C192.219 88.9023 193.612 87.5137 193.612 85.8008C193.612 84.0878 192.219 82.6992 190.5 82.6992C188.781 82.6992 187.388 84.0878 187.388 85.8008C187.388 87.5137 188.781 88.9023 190.5 88.9023Z" fill="#272727"/>
<path d="M205.047 88.9023C206.766 88.9023 208.16 87.5137 208.16 85.8008C208.16 84.0878 206.766 82.6992 205.047 82.6992C203.329 82.6992 201.935 84.0878 201.935 85.8008C201.935 87.5137 203.329 88.9023 205.047 88.9023Z" fill="#272727"/>
<path d="M219.597 88.9023C221.316 88.9023 222.709 87.5137 222.709 85.8008C222.709 84.0878 221.316 82.6992 219.597 82.6992C217.878 82.6992 216.484 84.0878 216.484 85.8008C216.484 87.5137 217.878 88.9023 219.597 88.9023Z" fill="#272727"/>
<path d="M234.146 88.9023C235.865 88.9023 237.259 87.5137 237.259 85.8008C237.259 84.0878 235.865 82.6992 234.146 82.6992C232.427 82.6992 231.034 84.0878 231.034 85.8008C231.034 87.5137 232.427 88.9023 234.146 88.9023Z" fill="#272727"/>
<path d="M248.694 88.9023C250.413 88.9023 251.806 87.5137 251.806 85.8008C251.806 84.0878 250.413 82.6992 248.694 82.6992C246.975 82.6992 245.581 84.0878 245.581 85.8008C245.581 87.5137 246.975 88.9023 248.694 88.9023Z" fill="#272727"/>
<path d="M263.241 88.9023C264.96 88.9023 266.354 87.5137 266.354 85.8008C266.354 84.0878 264.96 82.6992 263.241 82.6992C261.522 82.6992 260.129 84.0878 260.129 85.8008C260.129 87.5137 261.522 88.9023 263.241 88.9023Z" fill="#272727"/>
<path d="M277.791 88.9023C279.51 88.9023 280.903 87.5137 280.903 85.8008C280.903 84.0878 279.51 82.6992 277.791 82.6992C276.072 82.6992 274.678 84.0878 274.678 85.8008C274.678 87.5137 276.072 88.9023 277.791 88.9023Z" fill="#272727"/>
<path d="M292.34 88.9023C294.059 88.9023 295.453 87.5137 295.453 85.8008C295.453 84.0878 294.059 82.6992 292.34 82.6992C290.621 82.6992 289.228 84.0878 289.228 85.8008C289.228 87.5137 290.621 88.9023 292.34 88.9023Z" fill="#272727"/>
<path d="M306.888 88.9023C308.607 88.9023 310 87.5137 310 85.8008C310 84.0878 308.607 82.6992 306.888 82.6992C305.169 82.6992 303.775 84.0878 303.775 85.8008C303.775 87.5137 305.169 88.9023 306.888 88.9023Z" fill="#272727"/>
<path d="M74.1125 102.577C75.8314 102.577 77.2249 101.188 77.2249 99.4756C77.2249 97.7627 75.8314 96.3741 74.1125 96.3741C72.3935 96.3741 71 97.7627 71 99.4756C71 101.188 72.3935 102.577 74.1125 102.577Z" fill="#272727"/>
<path d="M88.66 102.577C90.3789 102.577 91.7724 101.188 91.7724 99.4756C91.7724 97.7627 90.3789 96.3741 88.66 96.3741C86.941 96.3741 85.5475 97.7627 85.5475 99.4756C85.5475 101.188 86.941 102.577 88.66 102.577Z" fill="#272727"/>
<path d="M103.209 102.577C104.928 102.577 106.322 101.188 106.322 99.4756C106.322 97.7627 104.928 96.3741 103.209 96.3741C101.49 96.3741 100.097 97.7627 100.097 99.4756C100.097 101.188 101.49 102.577 103.209 102.577Z" fill="#272727"/>
<path d="M117.759 102.577C119.478 102.577 120.871 101.188 120.871 99.4756C120.871 97.7627 119.478 96.3741 117.759 96.3741C116.04 96.3741 114.646 97.7627 114.646 99.4756C114.646 101.188 116.04 102.577 117.759 102.577Z" fill="#272727"/>
<path d="M132.306 102.577C134.025 102.577 135.419 101.188 135.419 99.4756C135.419 97.7627 134.025 96.3741 132.306 96.3741C130.587 96.3741 129.194 97.7627 129.194 99.4756C129.194 101.188 130.587 102.577 132.306 102.577Z" fill="#272727"/>
<path d="M146.854 102.577C148.573 102.577 149.966 101.188 149.966 99.4756C149.966 97.7627 148.573 96.3741 146.854 96.3741C145.135 96.3741 143.741 97.7627 143.741 99.4756C143.741 101.188 145.135 102.577 146.854 102.577Z" fill="#272727"/>
<path d="M161.403 102.577C163.122 102.577 164.516 101.188 164.516 99.4756C164.516 97.7627 163.122 96.3741 161.403 96.3741C159.684 96.3741 158.291 97.7627 158.291 99.4756C158.291 101.188 159.684 102.577 161.403 102.577Z" fill="#272727"/>
<path d="M175.952 102.577C177.671 102.577 179.065 101.188 179.065 99.4756C179.065 97.7627 177.671 96.3741 175.952 96.3741C174.234 96.3741 172.84 97.7627 172.84 99.4756C172.84 101.188 174.234 102.577 175.952 102.577Z" fill="#272727"/>
<path d="M190.5 102.577C192.219 102.577 193.612 101.188 193.612 99.4756C193.612 97.7627 192.219 96.3741 190.5 96.3741C188.781 96.3741 187.388 97.7627 187.388 99.4756C187.388 101.188 188.781 102.577 190.5 102.577Z" fill="#272727"/>
<path d="M205.047 102.577C206.766 102.577 208.16 101.188 208.16 99.4756C208.16 97.7627 206.766 96.3741 205.047 96.3741C203.329 96.3741 201.935 97.7627 201.935 99.4756C201.935 101.188 203.329 102.577 205.047 102.577Z" fill="#272727"/>
<path d="M219.597 102.577C221.316 102.577 222.709 101.188 222.709 99.4756C222.709 97.7627 221.316 96.3741 219.597 96.3741C217.878 96.3741 216.484 97.7627 216.484 99.4756C216.484 101.188 217.878 102.577 219.597 102.577Z" fill="#272727"/>
<path d="M234.146 102.577C235.865 102.577 237.259 101.188 237.259 99.4756C237.259 97.7627 235.865 96.3741 234.146 96.3741C232.427 96.3741 231.034 97.7627 231.034 99.4756C231.034 101.188 232.427 102.577 234.146 102.577Z" fill="#272727"/>
<path d="M248.694 102.577C250.413 102.577 251.806 101.188 251.806 99.4756C251.806 97.7627 250.413 96.3741 248.694 96.3741C246.975 96.3741 245.581 97.7627 245.581 99.4756C245.581 101.188 246.975 102.577 248.694 102.577Z" fill="#272727"/>
<path d="M263.241 102.577C264.96 102.577 266.354 101.188 266.354 99.4756C266.354 97.7627 264.96 96.3741 263.241 96.3741C261.522 96.3741 260.129 97.7627 260.129 99.4756C260.129 101.188 261.522 102.577 263.241 102.577Z" fill="#272727"/>
<path d="M277.791 102.577C279.51 102.577 280.903 101.188 280.903 99.4756C280.903 97.7627 279.51 96.3741 277.791 96.3741C276.072 96.3741 274.678 97.7627 274.678 99.4756C274.678 101.188 276.072 102.577 277.791 102.577Z" fill="#272727"/>
<path d="M292.34 102.577C294.059 102.577 295.453 101.188 295.453 99.4756C295.453 97.7627 294.059 96.3741 292.34 96.3741C290.621 96.3741 289.228 97.7627 289.228 99.4756C289.228 101.188 290.621 102.577 292.34 102.577Z" fill="#272727"/>
<path d="M306.888 102.577C308.607 102.577 310 101.188 310 99.4756C310 97.7627 308.607 96.3741 306.888 96.3741C305.169 96.3741 303.775 97.7627 303.775 99.4756C303.775 101.188 305.169 102.577 306.888 102.577Z" fill="#272727"/>
<path d="M74.1125 116.252C75.8314 116.252 77.2249 114.863 77.2249 113.15C77.2249 111.437 75.8314 110.049 74.1125 110.049C72.3935 110.049 71 111.437 71 113.15C71 114.863 72.3935 116.252 74.1125 116.252Z" fill="#272727"/>
<path d="M88.66 116.252C90.3789 116.252 91.7724 114.863 91.7724 113.15C91.7724 111.437 90.3789 110.049 88.66 110.049C86.941 110.049 85.5475 111.437 85.5475 113.15C85.5475 114.863 86.941 116.252 88.66 116.252Z" fill="#272727"/>
<path d="M103.209 116.252C104.928 116.252 106.322 114.863 106.322 113.15C106.322 111.437 104.928 110.049 103.209 110.049C101.49 110.049 100.097 111.437 100.097 113.15C100.097 114.863 101.49 116.252 103.209 116.252Z" fill="#272727"/>
<path d="M117.759 116.252C119.478 116.252 120.871 114.863 120.871 113.15C120.871 111.437 119.478 110.049 117.759 110.049C116.04 110.049 114.646 111.437 114.646 113.15C114.646 114.863 116.04 116.252 117.759 116.252Z" fill="#272727"/>
<path d="M132.306 116.252C134.025 116.252 135.419 114.863 135.419 113.15C135.419 111.437 134.025 110.049 132.306 110.049C130.587 110.049 129.194 111.437 129.194 113.15C129.194 114.863 130.587 116.252 132.306 116.252Z" fill="#272727"/>
<path d="M146.854 116.252C148.573 116.252 149.966 114.863 149.966 113.15C149.966 111.437 148.573 110.049 146.854 110.049C145.135 110.049 143.741 111.437 143.741 113.15C143.741 114.863 145.135 116.252 146.854 116.252Z" fill="#272727"/>
<path d="M161.403 116.252C163.122 116.252 164.516 114.863 164.516 113.15C164.516 111.437 163.122 110.049 161.403 110.049C159.684 110.049 158.291 111.437 158.291 113.15C158.291 114.863 159.684 116.252 161.403 116.252Z" fill="#272727"/>
<path d="M175.952 116.252C177.671 116.252 179.065 114.863 179.065 113.15C179.065 111.437 177.671 110.049 175.952 110.049C174.234 110.049 172.84 111.437 172.84 113.15C172.84 114.863 174.234 116.252 175.952 116.252Z" fill="#272727"/>
<path d="M190.5 116.252C192.219 116.252 193.612 114.863 193.612 113.15C193.612 111.437 192.219 110.049 190.5 110.049C188.781 110.049 187.388 111.437 187.388 113.15C187.388 114.863 188.781 116.252 190.5 116.252Z" fill="#272727"/>
<path d="M205.047 116.252C206.766 116.252 208.16 114.863 208.16 113.15C208.16 111.437 206.766 110.049 205.047 110.049C203.329 110.049 201.935 111.437 201.935 113.15C201.935 114.863 203.329 116.252 205.047 116.252Z" fill="#272727"/>
<path d="M219.597 116.252C221.316 116.252 222.709 114.863 222.709 113.15C222.709 111.437 221.316 110.049 219.597 110.049C217.878 110.049 216.484 111.437 216.484 113.15C216.484 114.863 217.878 116.252 219.597 116.252Z" fill="#272727"/>
<path d="M234.146 116.252C235.865 116.252 237.259 114.863 237.259 113.15C237.259 111.437 235.865 110.049 234.146 110.049C232.427 110.049 231.034 111.437 231.034 113.15C231.034 114.863 232.427 116.252 234.146 116.252Z" fill="#272727"/>
<path d="M248.694 116.252C250.413 116.252 251.806 114.863 251.806 113.15C251.806 111.437 250.413 110.049 248.694 110.049C246.975 110.049 245.581 111.437 245.581 113.15C245.581 114.863 246.975 116.252 248.694 116.252Z" fill="#272727"/>
<path d="M263.241 116.252C264.96 116.252 266.354 114.863 266.354 113.15C266.354 111.437 264.96 110.049 263.241 110.049C261.522 110.049 260.129 111.437 260.129 113.15C260.129 114.863 261.522 116.252 263.241 116.252Z" fill="#272727"/>
<path d="M277.791 116.252C279.51 116.252 280.903 114.863 280.903 113.15C280.903 111.437 279.51 110.049 277.791 110.049C276.072 110.049 274.678 111.437 274.678 113.15C274.678 114.863 276.072 116.252 277.791 116.252Z" fill="#272727"/>
<path d="M292.34 116.252C294.059 116.252 295.453 114.863 295.453 113.15C295.453 111.437 294.059 110.049 292.34 110.049C290.621 110.049 289.228 111.437 289.228 113.15C289.228 114.863 290.621 116.252 292.34 116.252Z" fill="#272727"/>
<path d="M306.888 116.252C308.607 116.252 310 114.863 310 113.15C310 111.437 308.607 110.049 306.888 110.049C305.169 110.049 303.775 111.437 303.775 113.15C303.775 114.863 305.169 116.252 306.888 116.252Z" fill="#272727"/>
<path d="M74.1125 129.927C75.8314 129.927 77.2249 128.538 77.2249 126.825C77.2249 125.112 75.8314 123.724 74.1125 123.724C72.3935 123.724 71 125.112 71 126.825C71 128.538 72.3935 129.927 74.1125 129.927Z" fill="#272727"/>
<path d="M88.66 129.927C90.3789 129.927 91.7724 128.538 91.7724 126.825C91.7724 125.112 90.3789 123.724 88.66 123.724C86.941 123.724 85.5475 125.112 85.5475 126.825C85.5475 128.538 86.941 129.927 88.66 129.927Z" fill="#272727"/>
<path d="M103.209 129.927C104.928 129.927 106.322 128.538 106.322 126.825C106.322 125.112 104.928 123.724 103.209 123.724C101.49 123.724 100.097 125.112 100.097 126.825C100.097 128.538 101.49 129.927 103.209 129.927Z" fill="#272727"/>
<path d="M117.759 129.927C119.478 129.927 120.871 128.538 120.871 126.825C120.871 125.112 119.478 123.724 117.759 123.724C116.04 123.724 114.646 125.112 114.646 126.825C114.646 128.538 116.04 129.927 117.759 129.927Z" fill="#272727"/>
<path d="M132.306 129.927C134.025 129.927 135.419 128.538 135.419 126.825C135.419 125.112 134.025 123.724 132.306 123.724C130.587 123.724 129.194 125.112 129.194 126.825C129.194 128.538 130.587 129.927 132.306 129.927Z" fill="#272727"/>
<path d="M146.854 129.927C148.573 129.927 149.966 128.538 149.966 126.825C149.966 125.112 148.573 123.724 146.854 123.724C145.135 123.724 143.741 125.112 143.741 126.825C143.741 128.538 145.135 129.927 146.854 129.927Z" fill="#272727"/>
<path d="M161.403 129.927C163.122 129.927 164.516 128.538 164.516 126.825C164.516 125.112 163.122 123.724 161.403 123.724C159.684 123.724 158.291 125.112 158.291 126.825C158.291 128.538 159.684 129.927 161.403 129.927Z" fill="#272727"/>
<path d="M175.952 129.927C177.671 129.927 179.065 128.538 179.065 126.825C179.065 125.112 177.671 123.724 175.952 123.724C174.234 123.724 172.84 125.112 172.84 126.825C172.84 128.538 174.234 129.927 175.952 129.927Z" fill="#272727"/>
<path d="M190.5 129.927C192.219 129.927 193.612 128.538 193.612 126.825C193.612 125.112 192.219 123.724 190.5 123.724C188.781 123.724 187.388 125.112 187.388 126.825C187.388 128.538 188.781 129.927 190.5 129.927Z" fill="#272727"/>
<path d="M205.047 129.927C206.766 129.927 208.16 128.538 208.16 126.825C208.16 125.112 206.766 123.724 205.047 123.724C203.329 123.724 201.935 125.112 201.935 126.825C201.935 128.538 203.329 129.927 205.047 129.927Z" fill="#272727"/>
<path d="M219.597 129.927C221.316 129.927 222.709 128.538 222.709 126.825C222.709 125.112 221.316 123.724 219.597 123.724C217.878 123.724 216.484 125.112 216.484 126.825C216.484 128.538 217.878 129.927 219.597 129.927Z" fill="#272727"/>
<path d="M234.146 129.927C235.865 129.927 237.259 128.538 237.259 126.825C237.259 125.112 235.865 123.724 234.146 123.724C232.427 123.724 231.034 125.112 231.034 126.825C231.034 128.538 232.427 129.927 234.146 129.927Z" fill="#272727"/>
<path d="M248.694 129.927C250.413 129.927 251.806 128.538 251.806 126.825C251.806 125.112 250.413 123.724 248.694 123.724C246.975 123.724 245.581 125.112 245.581 126.825C245.581 128.538 246.975 129.927 248.694 129.927Z" fill="#272727"/>
<path d="M263.241 129.927C264.96 129.927 266.354 128.538 266.354 126.825C266.354 125.112 264.96 123.724 263.241 123.724C261.522 123.724 260.129 125.112 260.129 126.825C260.129 128.538 261.522 129.927 263.241 129.927Z" fill="#272727"/>
<path d="M277.791 129.927C279.51 129.927 280.903 128.538 280.903 126.825C280.903 125.112 279.51 123.724 277.791 123.724C276.072 123.724 274.678 125.112 274.678 126.825C274.678 128.538 276.072 129.927 277.791 129.927Z" fill="#272727"/>
<path d="M292.34 129.927C294.059 129.927 295.453 128.538 295.453 126.825C295.453 125.112 294.059 123.724 292.34 123.724C290.621 123.724 289.228 125.112 289.228 126.825C289.228 128.538 290.621 129.927 292.34 129.927Z" fill="#272727"/>
<path d="M306.888 129.927C308.607 129.927 310 128.538 310 126.825C310 125.112 308.607 123.724 306.888 123.724C305.169 123.724 303.775 125.112 303.775 126.825C303.775 128.538 305.169 129.927 306.888 129.927Z" fill="#272727"/>
<path d="M74.1125 143.602C75.8314 143.602 77.2249 142.213 77.2249 140.5C77.2249 138.787 75.8314 137.398 74.1125 137.398C72.3935 137.398 71 138.787 71 140.5C71 142.213 72.3935 143.602 74.1125 143.602Z" fill="#272727"/>
<path d="M88.66 143.602C90.3789 143.602 91.7724 142.213 91.7724 140.5C91.7724 138.787 90.3789 137.398 88.66 137.398C86.941 137.398 85.5475 138.787 85.5475 140.5C85.5475 142.213 86.941 143.602 88.66 143.602Z" fill="#272727"/>
<path d="M103.209 143.602C104.928 143.602 106.322 142.213 106.322 140.5C106.322 138.787 104.928 137.398 103.209 137.398C101.49 137.398 100.097 138.787 100.097 140.5C100.097 142.213 101.49 143.602 103.209 143.602Z" fill="#272727"/>
<path d="M117.759 143.602C119.478 143.602 120.871 142.213 120.871 140.5C120.871 138.787 119.478 137.398 117.759 137.398C116.04 137.398 114.646 138.787 114.646 140.5C114.646 142.213 116.04 143.602 117.759 143.602Z" fill="#272727"/>
<path d="M132.306 143.602C134.025 143.602 135.419 142.213 135.419 140.5C135.419 138.787 134.025 137.398 132.306 137.398C130.587 137.398 129.194 138.787 129.194 140.5C129.194 142.213 130.587 143.602 132.306 143.602Z" fill="#272727"/>
<path d="M146.854 143.602C148.573 143.602 149.966 142.213 149.966 140.5C149.966 138.787 148.573 137.398 146.854 137.398C145.135 137.398 143.741 138.787 143.741 140.5C143.741 142.213 145.135 143.602 146.854 143.602Z" fill="#272727"/>
<path d="M161.403 143.602C163.122 143.602 164.516 142.213 164.516 140.5C164.516 138.787 163.122 137.398 161.403 137.398C159.684 137.398 158.291 138.787 158.291 140.5C158.291 142.213 159.684 143.602 161.403 143.602Z" fill="#272727"/>
<path d="M175.952 143.602C177.671 143.602 179.065 142.213 179.065 140.5C179.065 138.787 177.671 137.398 175.952 137.398C174.234 137.398 172.84 138.787 172.84 140.5C172.84 142.213 174.234 143.602 175.952 143.602Z" fill="#272727"/>
<path d="M190.5 143.602C192.219 143.602 193.612 142.213 193.612 140.5C193.612 138.787 192.219 137.398 190.5 137.398C188.781 137.398 187.388 138.787 187.388 140.5C187.388 142.213 188.781 143.602 190.5 143.602Z" fill="#272727"/>
<path d="M205.047 143.602C206.766 143.602 208.16 142.213 208.16 140.5C208.16 138.787 206.766 137.398 205.047 137.398C203.329 137.398 201.935 138.787 201.935 140.5C201.935 142.213 203.329 143.602 205.047 143.602Z" fill="#272727"/>
<path d="M219.597 143.602C221.316 143.602 222.709 142.213 222.709 140.5C222.709 138.787 221.316 137.398 219.597 137.398C217.878 137.398 216.484 138.787 216.484 140.5C216.484 142.213 217.878 143.602 219.597 143.602Z" fill="#272727"/>
<path d="M234.146 143.602C235.865 143.602 237.259 142.213 237.259 140.5C237.259 138.787 235.865 137.398 234.146 137.398C232.427 137.398 231.034 138.787 231.034 140.5C231.034 142.213 232.427 143.602 234.146 143.602Z" fill="#272727"/>
<path d="M248.694 143.602C250.413 143.602 251.806 142.213 251.806 140.5C251.806 138.787 250.413 137.398 248.694 137.398C246.975 137.398 245.581 138.787 245.581 140.5C245.581 142.213 246.975 143.602 248.694 143.602Z" fill="#272727"/>
<path d="M263.241 143.602C264.96 143.602 266.354 142.213 266.354 140.5C266.354 138.787 264.96 137.398 263.241 137.398C261.522 137.398 260.129 138.787 260.129 140.5C260.129 142.213 261.522 143.602 263.241 143.602Z" fill="#272727"/>
<path d="M277.791 143.602C279.51 143.602 280.903 142.213 280.903 140.5C280.903 138.787 279.51 137.398 277.791 137.398C276.072 137.398 274.678 138.787 274.678 140.5C274.678 142.213 276.072 143.602 277.791 143.602Z" fill="#272727"/>
<path d="M292.34 143.602C294.059 143.602 295.453 142.213 295.453 140.5C295.453 138.787 294.059 137.398 292.34 137.398C290.621 137.398 289.228 138.787 289.228 140.5C289.228 142.213 290.621 143.602 292.34 143.602Z" fill="#272727"/>
<path d="M306.888 143.602C308.607 143.602 310 142.213 310 140.5C310 138.787 308.607 137.398 306.888 137.398C305.169 137.398 303.775 138.787 303.775 140.5C303.775 142.213 305.169 143.602 306.888 143.602Z" fill="#272727"/>
<path d="M74.1125 157.276C75.8314 157.276 77.2249 155.888 77.2249 154.175C77.2249 152.462 75.8314 151.073 74.1125 151.073C72.3935 151.073 71 152.462 71 154.175C71 155.888 72.3935 157.276 74.1125 157.276Z" fill="#272727"/>
<path d="M88.66 157.276C90.3789 157.276 91.7724 155.888 91.7724 154.175C91.7724 152.462 90.3789 151.073 88.66 151.073C86.941 151.073 85.5475 152.462 85.5475 154.175C85.5475 155.888 86.941 157.276 88.66 157.276Z" fill="#272727"/>
<path d="M103.209 157.276C104.928 157.276 106.322 155.888 106.322 154.175C106.322 152.462 104.928 151.073 103.209 151.073C101.49 151.073 100.097 152.462 100.097 154.175C100.097 155.888 101.49 157.276 103.209 157.276Z" fill="#272727"/>
<path d="M117.759 157.276C119.478 157.276 120.871 155.888 120.871 154.175C120.871 152.462 119.478 151.073 117.759 151.073C116.04 151.073 114.646 152.462 114.646 154.175C114.646 155.888 116.04 157.276 117.759 157.276Z" fill="#272727"/>
<path d="M132.306 157.276C134.025 157.276 135.419 155.888 135.419 154.175C135.419 152.462 134.025 151.073 132.306 151.073C130.587 151.073 129.194 152.462 129.194 154.175C129.194 155.888 130.587 157.276 132.306 157.276Z" fill="#272727"/>
<path d="M146.854 157.276C148.573 157.276 149.966 155.888 149.966 154.175C149.966 152.462 148.573 151.073 146.854 151.073C145.135 151.073 143.741 152.462 143.741 154.175C143.741 155.888 145.135 157.276 146.854 157.276Z" fill="#272727"/>
<path d="M161.403 157.276C163.122 157.276 164.516 155.888 164.516 154.175C164.516 152.462 163.122 151.073 161.403 151.073C159.684 151.073 158.291 152.462 158.291 154.175C158.291 155.888 159.684 157.276 161.403 157.276Z" fill="#272727"/>
<path d="M175.952 157.276C177.671 157.276 179.065 155.888 179.065 154.175C179.065 152.462 177.671 151.073 175.952 151.073C174.234 151.073 172.84 152.462 172.84 154.175C172.84 155.888 174.234 157.276 175.952 157.276Z" fill="#272727"/>
<path d="M190.5 157.276C192.219 157.276 193.612 155.888 193.612 154.175C193.612 152.462 192.219 151.073 190.5 151.073C188.781 151.073 187.388 152.462 187.388 154.175C187.388 155.888 188.781 157.276 190.5 157.276Z" fill="#272727"/>
<path d="M205.047 157.276C206.766 157.276 208.16 155.888 208.16 154.175C208.16 152.462 206.766 151.073 205.047 151.073C203.329 151.073 201.935 152.462 201.935 154.175C201.935 155.888 203.329 157.276 205.047 157.276Z" fill="#272727"/>
<path d="M219.597 157.276C221.316 157.276 222.709 155.888 222.709 154.175C222.709 152.462 221.316 151.073 219.597 151.073C217.878 151.073 216.484 152.462 216.484 154.175C216.484 155.888 217.878 157.276 219.597 157.276Z" fill="#272727"/>
<path d="M234.146 157.276C235.865 157.276 237.259 155.888 237.259 154.175C237.259 152.462 235.865 151.073 234.146 151.073C232.427 151.073 231.034 152.462 231.034 154.175C231.034 155.888 232.427 157.276 234.146 157.276Z" fill="#272727"/>
<path d="M248.694 157.276C250.413 157.276 251.806 155.888 251.806 154.175C251.806 152.462 250.413 151.073 248.694 151.073C246.975 151.073 245.581 152.462 245.581 154.175C245.581 155.888 246.975 157.276 248.694 157.276Z" fill="#272727"/>
<path d="M263.241 157.276C264.96 157.276 266.354 155.888 266.354 154.175C266.354 152.462 264.96 151.073 263.241 151.073C261.522 151.073 260.129 152.462 260.129 154.175C260.129 155.888 261.522 157.276 263.241 157.276Z" fill="#272727"/>
<path d="M277.791 157.276C279.51 157.276 280.903 155.888 280.903 154.175C280.903 152.462 279.51 151.073 277.791 151.073C276.072 151.073 274.678 152.462 274.678 154.175C274.678 155.888 276.072 157.276 277.791 157.276Z" fill="#272727"/>
<path d="M292.34 157.276C294.059 157.276 295.453 155.888 295.453 154.175C295.453 152.462 294.059 151.073 292.34 151.073C290.621 151.073 289.228 152.462 289.228 154.175C289.228 155.888 290.621 157.276 292.34 157.276Z" fill="#272727"/>
<path d="M306.888 157.276C308.607 157.276 310 155.888 310 154.175C310 152.462 308.607 151.073 306.888 151.073C305.169 151.073 303.775 152.462 303.775 154.175C303.775 155.888 305.169 157.276 306.888 157.276Z" fill="#272727"/>
<path d="M74.1125 170.951C75.8314 170.951 77.2249 169.563 77.2249 167.85C77.2249 166.137 75.8314 164.748 74.1125 164.748C72.3935 164.748 71 166.137 71 167.85C71 169.563 72.3935 170.951 74.1125 170.951Z" fill="#272727"/>
<path d="M88.66 170.951C90.3789 170.951 91.7724 169.563 91.7724 167.85C91.7724 166.137 90.3789 164.748 88.66 164.748C86.941 164.748 85.5475 166.137 85.5475 167.85C85.5475 169.563 86.941 170.951 88.66 170.951Z" fill="#272727"/>
<path d="M103.209 170.951C104.928 170.951 106.322 169.563 106.322 167.85C106.322 166.137 104.928 164.748 103.209 164.748C101.49 164.748 100.097 166.137 100.097 167.85C100.097 169.563 101.49 170.951 103.209 170.951Z" fill="#272727"/>
<path d="M117.759 170.951C119.478 170.951 120.871 169.563 120.871 167.85C120.871 166.137 119.478 164.748 117.759 164.748C116.04 164.748 114.646 166.137 114.646 167.85C114.646 169.563 116.04 170.951 117.759 170.951Z" fill="#272727"/>
<path d="M132.306 170.951C134.025 170.951 135.419 169.563 135.419 167.85C135.419 166.137 134.025 164.748 132.306 164.748C130.587 164.748 129.194 166.137 129.194 167.85C129.194 169.563 130.587 170.951 132.306 170.951Z" fill="#272727"/>
<path d="M146.854 170.951C148.573 170.951 149.966 169.563 149.966 167.85C149.966 166.137 148.573 164.748 146.854 164.748C145.135 164.748 143.741 166.137 143.741 167.85C143.741 169.563 145.135 170.951 146.854 170.951Z" fill="#272727"/>
<path d="M161.403 170.951C163.122 170.951 164.516 169.563 164.516 167.85C164.516 166.137 163.122 164.748 161.403 164.748C159.684 164.748 158.291 166.137 158.291 167.85C158.291 169.563 159.684 170.951 161.403 170.951Z" fill="#272727"/>
<path d="M175.952 170.951C177.671 170.951 179.065 169.563 179.065 167.85C179.065 166.137 177.671 164.748 175.952 164.748C174.234 164.748 172.84 166.137 172.84 167.85C172.84 169.563 174.234 170.951 175.952 170.951Z" fill="#272727"/>
<path d="M190.5 170.951C192.219 170.951 193.612 169.563 193.612 167.85C193.612 166.137 192.219 164.748 190.5 164.748C188.781 164.748 187.388 166.137 187.388 167.85C187.388 169.563 188.781 170.951 190.5 170.951Z" fill="#272727"/>
<path d="M205.047 170.951C206.766 170.951 208.16 169.563 208.16 167.85C208.16 166.137 206.766 164.748 205.047 164.748C203.329 164.748 201.935 166.137 201.935 167.85C201.935 169.563 203.329 170.951 205.047 170.951Z" fill="#272727"/>
<path d="M219.597 170.951C221.316 170.951 222.709 169.563 222.709 167.85C222.709 166.137 221.316 164.748 219.597 164.748C217.878 164.748 216.484 166.137 216.484 167.85C216.484 169.563 217.878 170.951 219.597 170.951Z" fill="#272727"/>
<path d="M234.146 170.951C235.865 170.951 237.259 169.563 237.259 167.85C237.259 166.137 235.865 164.748 234.146 164.748C232.427 164.748 231.034 166.137 231.034 167.85C231.034 169.563 232.427 170.951 234.146 170.951Z" fill="#272727"/>
<path d="M248.694 170.951C250.413 170.951 251.806 169.563 251.806 167.85C251.806 166.137 250.413 164.748 248.694 164.748C246.975 164.748 245.581 166.137 245.581 167.85C245.581 169.563 246.975 170.951 248.694 170.951Z" fill="#272727"/>
<path d="M263.241 170.951C264.96 170.951 266.354 169.563 266.354 167.85C266.354 166.137 264.96 164.748 263.241 164.748C261.522 164.748 260.129 166.137 260.129 167.85C260.129 169.563 261.522 170.951 263.241 170.951Z" fill="#272727"/>
<path d="M277.791 170.951C279.51 170.951 280.903 169.563 280.903 167.85C280.903 166.137 279.51 164.748 277.791 164.748C276.072 164.748 274.678 166.137 274.678 167.85C274.678 169.563 276.072 170.951 277.791 170.951Z" fill="#272727"/>
<path d="M292.34 170.951C294.059 170.951 295.453 169.563 295.453 167.85C295.453 166.137 294.059 164.748 292.34 164.748C290.621 164.748 289.228 166.137 289.228 167.85C289.228 169.563 290.621 170.951 292.34 170.951Z" fill="#272727"/>
<path d="M306.888 170.951C308.607 170.951 310 169.563 310 167.85C310 166.137 308.607 164.748 306.888 164.748C305.169 164.748 303.775 166.137 303.775 167.85C303.775 169.563 305.169 170.951 306.888 170.951Z" fill="#272727"/>
<path d="M74.1125 184.626C75.8314 184.626 77.2249 183.237 77.2249 181.524C77.2249 179.812 75.8314 178.423 74.1125 178.423C72.3935 178.423 71 179.812 71 181.524C71 183.237 72.3935 184.626 74.1125 184.626Z" fill="#272727"/>
<path d="M88.66 184.626C90.3789 184.626 91.7724 183.237 91.7724 181.524C91.7724 179.812 90.3789 178.423 88.66 178.423C86.941 178.423 85.5475 179.812 85.5475 181.524C85.5475 183.237 86.941 184.626 88.66 184.626Z" fill="#272727"/>
<path d="M103.209 184.626C104.928 184.626 106.322 183.237 106.322 181.524C106.322 179.812 104.928 178.423 103.209 178.423C101.49 178.423 100.097 179.812 100.097 181.524C100.097 183.237 101.49 184.626 103.209 184.626Z" fill="#272727"/>
<path d="M117.759 184.626C119.478 184.626 120.871 183.237 120.871 181.524C120.871 179.812 119.478 178.423 117.759 178.423C116.04 178.423 114.646 179.812 114.646 181.524C114.646 183.237 116.04 184.626 117.759 184.626Z" fill="#272727"/>
<path d="M132.306 184.626C134.025 184.626 135.419 183.237 135.419 181.524C135.419 179.812 134.025 178.423 132.306 178.423C130.587 178.423 129.194 179.812 129.194 181.524C129.194 183.237 130.587 184.626 132.306 184.626Z" fill="#272727"/>
<path d="M146.854 184.626C148.573 184.626 149.966 183.237 149.966 181.524C149.966 179.812 148.573 178.423 146.854 178.423C145.135 178.423 143.741 179.812 143.741 181.524C143.741 183.237 145.135 184.626 146.854 184.626Z" fill="#272727"/>
<path d="M161.403 184.626C163.122 184.626 164.516 183.237 164.516 181.524C164.516 179.812 163.122 178.423 161.403 178.423C159.684 178.423 158.291 179.812 158.291 181.524C158.291 183.237 159.684 184.626 161.403 184.626Z" fill="#272727"/>
<path d="M175.952 184.626C177.671 184.626 179.065 183.237 179.065 181.524C179.065 179.812 177.671 178.423 175.952 178.423C174.234 178.423 172.84 179.812 172.84 181.524C172.84 183.237 174.234 184.626 175.952 184.626Z" fill="#272727"/>
<path d="M190.5 184.626C192.219 184.626 193.612 183.237 193.612 181.524C193.612 179.812 192.219 178.423 190.5 178.423C188.781 178.423 187.388 179.812 187.388 181.524C187.388 183.237 188.781 184.626 190.5 184.626Z" fill="#272727"/>
<path d="M205.047 184.626C206.766 184.626 208.16 183.237 208.16 181.524C208.16 179.812 206.766 178.423 205.047 178.423C203.329 178.423 201.935 179.812 201.935 181.524C201.935 183.237 203.329 184.626 205.047 184.626Z" fill="#272727"/>
<path d="M219.597 184.626C221.316 184.626 222.709 183.237 222.709 181.524C222.709 179.812 221.316 178.423 219.597 178.423C217.878 178.423 216.484 179.812 216.484 181.524C216.484 183.237 217.878 184.626 219.597 184.626Z" fill="#272727"/>
<path d="M234.146 184.626C235.865 184.626 237.259 183.237 237.259 181.524C237.259 179.812 235.865 178.423 234.146 178.423C232.427 178.423 231.034 179.812 231.034 181.524C231.034 183.237 232.427 184.626 234.146 184.626Z" fill="#272727"/>
<path d="M248.694 184.626C250.413 184.626 251.806 183.237 251.806 181.524C251.806 179.812 250.413 178.423 248.694 178.423C246.975 178.423 245.581 179.812 245.581 181.524C245.581 183.237 246.975 184.626 248.694 184.626Z" fill="#272727"/>
<path d="M263.241 184.626C264.96 184.626 266.354 183.237 266.354 181.524C266.354 179.812 264.96 178.423 263.241 178.423C261.522 178.423 260.129 179.812 260.129 181.524C260.129 183.237 261.522 184.626 263.241 184.626Z" fill="#272727"/>
<path d="M277.791 184.626C279.51 184.626 280.903 183.237 280.903 181.524C280.903 179.812 279.51 178.423 277.791 178.423C276.072 178.423 274.678 179.812 274.678 181.524C274.678 183.237 276.072 184.626 277.791 184.626Z" fill="#272727"/>
<path d="M292.34 184.626C294.059 184.626 295.453 183.237 295.453 181.524C295.453 179.812 294.059 178.423 292.34 178.423C290.621 178.423 289.228 179.812 289.228 181.524C289.228 183.237 290.621 184.626 292.34 184.626Z" fill="#272727"/>
<path d="M306.888 184.626C308.607 184.626 310 183.237 310 181.524C310 179.812 308.607 178.423 306.888 178.423C305.169 178.423 303.775 179.812 303.775 181.524C303.775 183.237 305.169 184.626 306.888 184.626Z" fill="#272727"/>
<path d="M74.1125 198.301C75.8314 198.301 77.2249 196.912 77.2249 195.199C77.2249 193.486 75.8314 192.098 74.1125 192.098C72.3935 192.098 71 193.486 71 195.199C71 196.912 72.3935 198.301 74.1125 198.301Z" fill="#272727"/>
<path d="M88.66 198.301C90.3789 198.301 91.7724 196.912 91.7724 195.199C91.7724 193.486 90.3789 192.098 88.66 192.098C86.941 192.098 85.5475 193.486 85.5475 195.199C85.5475 196.912 86.941 198.301 88.66 198.301Z" fill="#272727"/>
<path d="M103.209 198.301C104.928 198.301 106.322 196.912 106.322 195.199C106.322 193.486 104.928 192.098 103.209 192.098C101.49 192.098 100.097 193.486 100.097 195.199C100.097 196.912 101.49 198.301 103.209 198.301Z" fill="#272727"/>
<path d="M117.759 198.301C119.478 198.301 120.871 196.912 120.871 195.199C120.871 193.486 119.478 192.098 117.759 192.098C116.04 192.098 114.646 193.486 114.646 195.199C114.646 196.912 116.04 198.301 117.759 198.301Z" fill="#272727"/>
<path d="M132.306 198.301C134.025 198.301 135.419 196.912 135.419 195.199C135.419 193.486 134.025 192.098 132.306 192.098C130.587 192.098 129.194 193.486 129.194 195.199C129.194 196.912 130.587 198.301 132.306 198.301Z" fill="#272727"/>
<path d="M146.854 198.301C148.573 198.301 149.966 196.912 149.966 195.199C149.966 193.486 148.573 192.098 146.854 192.098C145.135 192.098 143.741 193.486 143.741 195.199C143.741 196.912 145.135 198.301 146.854 198.301Z" fill="#272727"/>
<path d="M161.403 198.301C163.122 198.301 164.516 196.912 164.516 195.199C164.516 193.486 163.122 192.098 161.403 192.098C159.684 192.098 158.291 193.486 158.291 195.199C158.291 196.912 159.684 198.301 161.403 198.301Z" fill="#272727"/>
<path d="M175.952 198.301C177.671 198.301 179.065 196.912 179.065 195.199C179.065 193.486 177.671 192.098 175.952 192.098C174.234 192.098 172.84 193.486 172.84 195.199C172.84 196.912 174.234 198.301 175.952 198.301Z" fill="#272727"/>
<path d="M190.5 198.301C192.219 198.301 193.612 196.912 193.612 195.199C193.612 193.486 192.219 192.098 190.5 192.098C188.781 192.098 187.388 193.486 187.388 195.199C187.388 196.912 188.781 198.301 190.5 198.301Z" fill="#272727"/>
<path d="M205.047 198.301C206.766 198.301 208.16 196.912 208.16 195.199C208.16 193.486 206.766 192.098 205.047 192.098C203.329 192.098 201.935 193.486 201.935 195.199C201.935 196.912 203.329 198.301 205.047 198.301Z" fill="#272727"/>
<path d="M219.597 198.301C221.316 198.301 222.709 196.912 222.709 195.199C222.709 193.486 221.316 192.098 219.597 192.098C217.878 192.098 216.484 193.486 216.484 195.199C216.484 196.912 217.878 198.301 219.597 198.301Z" fill="#272727"/>
<path d="M234.146 198.301C235.865 198.301 237.259 196.912 237.259 195.199C237.259 193.486 235.865 192.098 234.146 192.098C232.427 192.098 231.034 193.486 231.034 195.199C231.034 196.912 232.427 198.301 234.146 198.301Z" fill="#272727"/>
<path d="M248.694 198.301C250.413 198.301 251.806 196.912 251.806 195.199C251.806 193.486 250.413 192.098 248.694 192.098C246.975 192.098 245.581 193.486 245.581 195.199C245.581 196.912 246.975 198.301 248.694 198.301Z" fill="#272727"/>
<path d="M263.241 198.301C264.96 198.301 266.354 196.912 266.354 195.199C266.354 193.486 264.96 192.098 263.241 192.098C261.522 192.098 260.129 193.486 260.129 195.199C260.129 196.912 261.522 198.301 263.241 198.301Z" fill="#272727"/>
<path d="M277.791 198.301C279.51 198.301 280.903 196.912 280.903 195.199C280.903 193.486 279.51 192.098 277.791 192.098C276.072 192.098 274.678 193.486 274.678 195.199C274.678 196.912 276.072 198.301 277.791 198.301Z" fill="#272727"/>
<path d="M292.34 198.301C294.059 198.301 295.453 196.912 295.453 195.199C295.453 193.486 294.059 192.098 292.34 192.098C290.621 192.098 289.228 193.486 289.228 195.199C289.228 196.912 290.621 198.301 292.34 198.301Z" fill="#272727"/>
<path d="M306.888 198.301C308.607 198.301 310 196.912 310 195.199C310 193.486 308.607 192.098 306.888 192.098C305.169 192.098 303.775 193.486 303.775 195.199C303.775 196.912 305.169 198.301 306.888 198.301Z" fill="#272727"/>
<path d="M74.1125 211.976C75.8314 211.976 77.2249 210.587 77.2249 208.874C77.2249 207.161 75.8314 205.773 74.1125 205.773C72.3935 205.773 71 207.161 71 208.874C71 210.587 72.3935 211.976 74.1125 211.976Z" fill="#272727"/>
<path d="M88.66 211.976C90.3789 211.976 91.7724 210.587 91.7724 208.874C91.7724 207.161 90.3789 205.773 88.66 205.773C86.941 205.773 85.5475 207.161 85.5475 208.874C85.5475 210.587 86.941 211.976 88.66 211.976Z" fill="#272727"/>
<path d="M103.209 211.976C104.928 211.976 106.322 210.587 106.322 208.874C106.322 207.161 104.928 205.773 103.209 205.773C101.49 205.773 100.097 207.161 100.097 208.874C100.097 210.587 101.49 211.976 103.209 211.976Z" fill="#272727"/>
<path d="M117.759 211.976C119.478 211.976 120.871 210.587 120.871 208.874C120.871 207.161 119.478 205.773 117.759 205.773C116.04 205.773 114.646 207.161 114.646 208.874C114.646 210.587 116.04 211.976 117.759 211.976Z" fill="#272727"/>
<path d="M132.306 211.976C134.025 211.976 135.419 210.587 135.419 208.874C135.419 207.161 134.025 205.773 132.306 205.773C130.587 205.773 129.194 207.161 129.194 208.874C129.194 210.587 130.587 211.976 132.306 211.976Z" fill="#272727"/>
<path d="M146.854 211.976C148.573 211.976 149.966 210.587 149.966 208.874C149.966 207.161 148.573 205.773 146.854 205.773C145.135 205.773 143.741 207.161 143.741 208.874C143.741 210.587 145.135 211.976 146.854 211.976Z" fill="#272727"/>
<path d="M161.403 211.976C163.122 211.976 164.516 210.587 164.516 208.874C164.516 207.161 163.122 205.773 161.403 205.773C159.684 205.773 158.291 207.161 158.291 208.874C158.291 210.587 159.684 211.976 161.403 211.976Z" fill="#272727"/>
<path d="M175.952 211.976C177.671 211.976 179.065 210.587 179.065 208.874C179.065 207.161 177.671 205.773 175.952 205.773C174.234 205.773 172.84 207.161 172.84 208.874C172.84 210.587 174.234 211.976 175.952 211.976Z" fill="#272727"/>
<path d="M190.5 211.976C192.219 211.976 193.612 210.587 193.612 208.874C193.612 207.161 192.219 205.773 190.5 205.773C188.781 205.773 187.388 207.161 187.388 208.874C187.388 210.587 188.781 211.976 190.5 211.976Z" fill="#272727"/>
<path d="M205.047 211.976C206.766 211.976 208.16 210.587 208.16 208.874C208.16 207.161 206.766 205.773 205.047 205.773C203.329 205.773 201.935 207.161 201.935 208.874C201.935 210.587 203.329 211.976 205.047 211.976Z" fill="#272727"/>
<path d="M219.597 211.976C221.316 211.976 222.709 210.587 222.709 208.874C222.709 207.161 221.316 205.773 219.597 205.773C217.878 205.773 216.484 207.161 216.484 208.874C216.484 210.587 217.878 211.976 219.597 211.976Z" fill="#272727"/>
<path d="M234.146 211.976C235.865 211.976 237.259 210.587 237.259 208.874C237.259 207.161 235.865 205.773 234.146 205.773C232.427 205.773 231.034 207.161 231.034 208.874C231.034 210.587 232.427 211.976 234.146 211.976Z" fill="#272727"/>
<path d="M248.694 211.976C250.413 211.976 251.806 210.587 251.806 208.874C251.806 207.161 250.413 205.773 248.694 205.773C246.975 205.773 245.581 207.161 245.581 208.874C245.581 210.587 246.975 211.976 248.694 211.976Z" fill="#272727"/>
<path d="M263.241 211.976C264.96 211.976 266.354 210.587 266.354 208.874C266.354 207.161 264.96 205.773 263.241 205.773C261.522 205.773 260.129 207.161 260.129 208.874C260.129 210.587 261.522 211.976 263.241 211.976Z" fill="#272727"/>
<path d="M277.791 211.976C279.51 211.976 280.903 210.587 280.903 208.874C280.903 207.161 279.51 205.773 277.791 205.773C276.072 205.773 274.678 207.161 274.678 208.874C274.678 210.587 276.072 211.976 277.791 211.976Z" fill="#272727"/>
<path d="M292.34 211.976C294.059 211.976 295.453 210.587 295.453 208.874C295.453 207.161 294.059 205.773 292.34 205.773C290.621 205.773 289.228 207.161 289.228 208.874C289.228 210.587 290.621 211.976 292.34 211.976Z" fill="#272727"/>
<path d="M306.888 211.976C308.607 211.976 310 210.587 310 208.874C310 207.161 308.607 205.773 306.888 205.773C305.169 205.773 303.775 207.161 303.775 208.874C303.775 210.587 305.169 211.976 306.888 211.976Z" fill="#272727"/>
<path d="M74.1125 225.65C75.8314 225.65 77.2249 224.262 77.2249 222.549C77.2249 220.836 75.8314 219.447 74.1125 219.447C72.3935 219.447 71 220.836 71 222.549C71 224.262 72.3935 225.65 74.1125 225.65Z" fill="#272727"/>
<path d="M88.66 225.65C90.3789 225.65 91.7724 224.262 91.7724 222.549C91.7724 220.836 90.3789 219.447 88.66 219.447C86.941 219.447 85.5475 220.836 85.5475 222.549C85.5475 224.262 86.941 225.65 88.66 225.65Z" fill="#272727"/>
<path d="M103.209 225.65C104.928 225.65 106.322 224.262 106.322 222.549C106.322 220.836 104.928 219.447 103.209 219.447C101.49 219.447 100.097 220.836 100.097 222.549C100.097 224.262 101.49 225.65 103.209 225.65Z" fill="#272727"/>
<path d="M117.759 225.65C119.478 225.65 120.871 224.262 120.871 222.549C120.871 220.836 119.478 219.447 117.759 219.447C116.04 219.447 114.646 220.836 114.646 222.549C114.646 224.262 116.04 225.65 117.759 225.65Z" fill="#272727"/>
<path d="M132.306 225.65C134.025 225.65 135.419 224.262 135.419 222.549C135.419 220.836 134.025 219.447 132.306 219.447C130.587 219.447 129.194 220.836 129.194 222.549C129.194 224.262 130.587 225.65 132.306 225.65Z" fill="#272727"/>
<path d="M146.854 225.65C148.573 225.65 149.966 224.262 149.966 222.549C149.966 220.836 148.573 219.447 146.854 219.447C145.135 219.447 143.741 220.836 143.741 222.549C143.741 224.262 145.135 225.65 146.854 225.65Z" fill="#272727"/>
<path d="M161.403 225.65C163.122 225.65 164.516 224.262 164.516 222.549C164.516 220.836 163.122 219.447 161.403 219.447C159.684 219.447 158.291 220.836 158.291 222.549C158.291 224.262 159.684 225.65 161.403 225.65Z" fill="#272727"/>
<path d="M175.952 225.65C177.671 225.65 179.065 224.262 179.065 222.549C179.065 220.836 177.671 219.447 175.952 219.447C174.234 219.447 172.84 220.836 172.84 222.549C172.84 224.262 174.234 225.65 175.952 225.65Z" fill="#272727"/>
<path d="M190.5 225.65C192.219 225.65 193.612 224.262 193.612 222.549C193.612 220.836 192.219 219.447 190.5 219.447C188.781 219.447 187.388 220.836 187.388 222.549C187.388 224.262 188.781 225.65 190.5 225.65Z" fill="#272727"/>
<path d="M205.047 225.65C206.766 225.65 208.16 224.262 208.16 222.549C208.16 220.836 206.766 219.447 205.047 219.447C203.329 219.447 201.935 220.836 201.935 222.549C201.935 224.262 203.329 225.65 205.047 225.65Z" fill="#272727"/>
<path d="M219.597 225.65C221.316 225.65 222.709 224.262 222.709 222.549C222.709 220.836 221.316 219.447 219.597 219.447C217.878 219.447 216.484 220.836 216.484 222.549C216.484 224.262 217.878 225.65 219.597 225.65Z" fill="#272727"/>
<path d="M234.146 225.65C235.865 225.65 237.259 224.262 237.259 222.549C237.259 220.836 235.865 219.447 234.146 219.447C232.427 219.447 231.034 220.836 231.034 222.549C231.034 224.262 232.427 225.65 234.146 225.65Z" fill="#272727"/>
<path d="M248.694 225.65C250.413 225.65 251.806 224.262 251.806 222.549C251.806 220.836 250.413 219.447 248.694 219.447C246.975 219.447 245.581 220.836 245.581 222.549C245.581 224.262 246.975 225.65 248.694 225.65Z" fill="#272727"/>
<path d="M263.241 225.65C264.96 225.65 266.354 224.262 266.354 222.549C266.354 220.836 264.96 219.447 263.241 219.447C261.522 219.447 260.129 220.836 260.129 222.549C260.129 224.262 261.522 225.65 263.241 225.65Z" fill="#272727"/>
<path d="M277.791 225.65C279.51 225.65 280.903 224.262 280.903 222.549C280.903 220.836 279.51 219.447 277.791 219.447C276.072 219.447 274.678 220.836 274.678 222.549C274.678 224.262 276.072 225.65 277.791 225.65Z" fill="#272727"/>
<path d="M292.34 225.65C294.059 225.65 295.453 224.262 295.453 222.549C295.453 220.836 294.059 219.447 292.34 219.447C290.621 219.447 289.228 220.836 289.228 222.549C289.228 224.262 290.621 225.65 292.34 225.65Z" fill="#272727"/>
<path d="M306.888 225.65C308.607 225.65 310 224.262 310 222.549C310 220.836 308.607 219.447 306.888 219.447C305.169 219.447 303.775 220.836 303.775 222.549C303.775 224.262 305.169 225.65 306.888 225.65Z" fill="#272727"/>
<path d="M74.1125 239.325C75.8314 239.325 77.2249 237.937 77.2249 236.224C77.2249 234.511 75.8314 233.122 74.1125 233.122C72.3935 233.122 71 234.511 71 236.224C71 237.937 72.3935 239.325 74.1125 239.325Z" fill="#272727"/>
<path d="M88.66 239.325C90.3789 239.325 91.7724 237.937 91.7724 236.224C91.7724 234.511 90.3789 233.122 88.66 233.122C86.941 233.122 85.5475 234.511 85.5475 236.224C85.5475 237.937 86.941 239.325 88.66 239.325Z" fill="#272727"/>
<path d="M103.209 239.325C104.928 239.325 106.322 237.937 106.322 236.224C106.322 234.511 104.928 233.122 103.209 233.122C101.49 233.122 100.097 234.511 100.097 236.224C100.097 237.937 101.49 239.325 103.209 239.325Z" fill="#272727"/>
<path d="M117.759 239.325C119.478 239.325 120.871 237.937 120.871 236.224C120.871 234.511 119.478 233.122 117.759 233.122C116.04 233.122 114.646 234.511 114.646 236.224C114.646 237.937 116.04 239.325 117.759 239.325Z" fill="#272727"/>
<path d="M132.306 239.325C134.025 239.325 135.419 237.937 135.419 236.224C135.419 234.511 134.025 233.122 132.306 233.122C130.587 233.122 129.194 234.511 129.194 236.224C129.194 237.937 130.587 239.325 132.306 239.325Z" fill="#272727"/>
<path d="M146.854 239.325C148.573 239.325 149.966 237.937 149.966 236.224C149.966 234.511 148.573 233.122 146.854 233.122C145.135 233.122 143.741 234.511 143.741 236.224C143.741 237.937 145.135 239.325 146.854 239.325Z" fill="#272727"/>
<path d="M161.403 239.325C163.122 239.325 164.516 237.937 164.516 236.224C164.516 234.511 163.122 233.122 161.403 233.122C159.684 233.122 158.291 234.511 158.291 236.224C158.291 237.937 159.684 239.325 161.403 239.325Z" fill="#272727"/>
<path d="M175.952 239.325C177.671 239.325 179.065 237.937 179.065 236.224C179.065 234.511 177.671 233.122 175.952 233.122C174.234 233.122 172.84 234.511 172.84 236.224C172.84 237.937 174.234 239.325 175.952 239.325Z" fill="#272727"/>
<path d="M190.5 239.325C192.219 239.325 193.612 237.937 193.612 236.224C193.612 234.511 192.219 233.122 190.5 233.122C188.781 233.122 187.388 234.511 187.388 236.224C187.388 237.937 188.781 239.325 190.5 239.325Z" fill="#272727"/>
<path d="M205.047 239.325C206.766 239.325 208.16 237.937 208.16 236.224C208.16 234.511 206.766 233.122 205.047 233.122C203.329 233.122 201.935 234.511 201.935 236.224C201.935 237.937 203.329 239.325 205.047 239.325Z" fill="#272727"/>
<path d="M219.597 239.325C221.316 239.325 222.709 237.937 222.709 236.224C222.709 234.511 221.316 233.122 219.597 233.122C217.878 233.122 216.484 234.511 216.484 236.224C216.484 237.937 217.878 239.325 219.597 239.325Z" fill="#272727"/>
<path d="M234.146 239.325C235.865 239.325 237.259 237.937 237.259 236.224C237.259 234.511 235.865 233.122 234.146 233.122C232.427 233.122 231.034 234.511 231.034 236.224C231.034 237.937 232.427 239.325 234.146 239.325Z" fill="#272727"/>
<path d="M248.694 239.325C250.413 239.325 251.806 237.937 251.806 236.224C251.806 234.511 250.413 233.122 248.694 233.122C246.975 233.122 245.581 234.511 245.581 236.224C245.581 237.937 246.975 239.325 248.694 239.325Z" fill="#272727"/>
<path d="M263.241 239.325C264.96 239.325 266.354 237.937 266.354 236.224C266.354 234.511 264.96 233.122 263.241 233.122C261.522 233.122 260.129 234.511 260.129 236.224C260.129 237.937 261.522 239.325 263.241 239.325Z" fill="#272727"/>
<path d="M277.791 239.325C279.51 239.325 280.903 237.937 280.903 236.224C280.903 234.511 279.51 233.122 277.791 233.122C276.072 233.122 274.678 234.511 274.678 236.224C274.678 237.937 276.072 239.325 277.791 239.325Z" fill="#272727"/>
<path d="M292.34 239.325C294.059 239.325 295.453 237.937 295.453 236.224C295.453 234.511 294.059 233.122 292.34 233.122C290.621 233.122 289.228 234.511 289.228 236.224C289.228 237.937 290.621 239.325 292.34 239.325Z" fill="#272727"/>
<path d="M306.888 239.325C308.607 239.325 310 237.937 310 236.224C310 234.511 308.607 233.122 306.888 233.122C305.169 233.122 303.775 234.511 303.775 236.224C303.775 237.937 305.169 239.325 306.888 239.325Z" fill="#272727"/>
<path d="M74.1125 253C75.8314 253 77.2249 251.611 77.2249 249.899C77.2249 248.186 75.8314 246.797 74.1125 246.797C72.3935 246.797 71 248.186 71 249.899C71 251.611 72.3935 253 74.1125 253Z" fill="#272727"/>
<path d="M88.66 253C90.3789 253 91.7724 251.611 91.7724 249.899C91.7724 248.186 90.3789 246.797 88.66 246.797C86.941 246.797 85.5475 248.186 85.5475 249.899C85.5475 251.611 86.941 253 88.66 253Z" fill="#272727"/>
<path d="M103.209 253C104.928 253 106.322 251.611 106.322 249.899C106.322 248.186 104.928 246.797 103.209 246.797C101.49 246.797 100.097 248.186 100.097 249.899C100.097 251.611 101.49 253 103.209 253Z" fill="#272727"/>
<path d="M117.759 253C119.478 253 120.871 251.611 120.871 249.899C120.871 248.186 119.478 246.797 117.759 246.797C116.04 246.797 114.646 248.186 114.646 249.899C114.646 251.611 116.04 253 117.759 253Z" fill="#272727"/>
<path d="M132.306 253C134.025 253 135.419 251.611 135.419 249.899C135.419 248.186 134.025 246.797 132.306 246.797C130.587 246.797 129.194 248.186 129.194 249.899C129.194 251.611 130.587 253 132.306 253Z" fill="#272727"/>
<path d="M146.854 253C148.573 253 149.966 251.611 149.966 249.899C149.966 248.186 148.573 246.797 146.854 246.797C145.135 246.797 143.741 248.186 143.741 249.899C143.741 251.611 145.135 253 146.854 253Z" fill="#272727"/>
<path d="M161.403 253C163.122 253 164.516 251.611 164.516 249.899C164.516 248.186 163.122 246.797 161.403 246.797C159.684 246.797 158.291 248.186 158.291 249.899C158.291 251.611 159.684 253 161.403 253Z" fill="#272727"/>
<path d="M175.952 253C177.671 253 179.065 251.611 179.065 249.899C179.065 248.186 177.671 246.797 175.952 246.797C174.234 246.797 172.84 248.186 172.84 249.899C172.84 251.611 174.234 253 175.952 253Z" fill="#272727"/>
<path d="M190.5 253C192.219 253 193.612 251.611 193.612 249.899C193.612 248.186 192.219 246.797 190.5 246.797C188.781 246.797 187.388 248.186 187.388 249.899C187.388 251.611 188.781 253 190.5 253Z" fill="#272727"/>
<path d="M205.047 253C206.766 253 208.16 251.611 208.16 249.899C208.16 248.186 206.766 246.797 205.047 246.797C203.329 246.797 201.935 248.186 201.935 249.899C201.935 251.611 203.329 253 205.047 253Z" fill="#272727"/>
<path d="M219.597 253C221.316 253 222.709 251.611 222.709 249.899C222.709 248.186 221.316 246.797 219.597 246.797C217.878 246.797 216.484 248.186 216.484 249.899C216.484 251.611 217.878 253 219.597 253Z" fill="#272727"/>
<path d="M234.146 253C235.865 253 237.259 251.611 237.259 249.899C237.259 248.186 235.865 246.797 234.146 246.797C232.427 246.797 231.034 248.186 231.034 249.899C231.034 251.611 232.427 253 234.146 253Z" fill="#272727"/>
<path d="M248.694 253C250.413 253 251.806 251.611 251.806 249.899C251.806 248.186 250.413 246.797 248.694 246.797C246.975 246.797 245.581 248.186 245.581 249.899C245.581 251.611 246.975 253 248.694 253Z" fill="#272727"/>
<path d="M263.241 253C264.96 253 266.354 251.611 266.354 249.899C266.354 248.186 264.96 246.797 263.241 246.797C261.522 246.797 260.129 248.186 260.129 249.899C260.129 251.611 261.522 253 263.241 253Z" fill="#272727"/>
<path d="M277.791 253C279.51 253 280.903 251.611 280.903 249.899C280.903 248.186 279.51 246.797 277.791 246.797C276.072 246.797 274.678 248.186 274.678 249.899C274.678 251.611 276.072 253 277.791 253Z" fill="#272727"/>
<path d="M292.34 253C294.059 253 295.453 251.611 295.453 249.899C295.453 248.186 294.059 246.797 292.34 246.797C290.621 246.797 289.228 248.186 289.228 249.899C289.228 251.611 290.621 253 292.34 253Z" fill="#272727"/>
<path d="M306.888 253C308.607 253 310 251.611 310 249.899C310 248.186 308.607 246.797 306.888 246.797C305.169 246.797 303.775 248.186 303.775 249.899C303.775 251.611 305.169 253 306.888 253Z" fill="#272727"/>
</g>
<circle cx="1250" cy="176" r="444" fill="url(#paint0_radial_22_2886)"/>
<circle cx="-78" cy="535" r="337" fill="url(#paint1_radial_22_2886)"/>
</g>
<defs>
<radialGradient id="paint0_radial_22_2886" cx="0" cy="0" r="1" gradientUnits="userSpaceOnUse" gradientTransform="translate(1250 176) rotate(90) scale(444)">
<stop stop-color="#005CFF"/>
<stop offset="1" stop-opacity="0"/>
</radialGradient>
<radialGradient id="paint1_radial_22_2886" cx="0" cy="0" r="1" gradientUnits="userSpaceOnUse" gradientTransform="translate(-78 535) rotate(90) scale(337)">
<stop stop-color="#005CFF"/>
<stop offset="1" stop-opacity="0"/>
</radialGradient>
<clipPath id="clip0_22_2886">
<rect width="1440" height="810" fill="white"/>
</clipPath>
<clipPath id="clip1_22_2886">
<rect width="239" height="225" fill="white" transform="translate(71 28)"/>
</clipPath>
</defs>
</svg>
